<?xml version="1.0" encoding="UTF-8"?>
<svg id="speakerbox-icon" xmlns="http://www.w3.org/2000/svg" viewBox="0 0 800 800">
  <defs>
    <style>
      .cls-1 {
        fill: #ff3e3e;
      }
    </style>
  </defs>
  <path class="cls-1" d="M511.16,639.86c-15.12-26.18-30.42-49.53-34.01-51.89s-23.84,25.71-38.96,51.89-27.69,51.11-27.93,55.4,34.19,7.79,64.42,7.79,58.11-1.58,61.94-3.51-10.34-33.5-25.46-59.68Z"/>
  <path class="cls-1" d="M80,0C36,0,0,36,0,80V720c0,44,36,80,80,80H720c44,0,80-36,80-80V80c0-44-36-80-80-80H80Zm-13.76,66.6l13.45-13.45c19.46,7.4,60.81,38.94,91.89,70.08l32.35,32.42c31.08,31.15,59.53,56.21,63.22,55.69h3.48c31.18,0,56.45,25.27,56.45,56.45s-25.27,56.45-56.45,56.45-56.45-25.27-56.45-56.45v-1.26c.08-1.37-25.29-27.98-56.37-59.12l-35.08-35.15c-31.08-31.15-62.56-72.55-69.96-92.02l13.45-13.64Zm626.55,494.51c.66,3.75,12.52,37.92,26.36,75.93s23.08,78.53,20.55,90.03-64.2,20.92-108.2,20.92H169.64c-44,0-89.08-4.81-100.18-10.69s-1.3-62.25,12.53-100.26,25.7-72.18,26.36-75.93-12.52-44.54-26.36-82.75-23.08-78.86-20.55-90.31,64.2-20.83,108.2-20.83h461.85c44,0,89.04,4.77,100.09,10.6s1.4,62.32-12.44,100.54-27.01,79-26.36,82.75Zm56.69-480.87c-7.4,19.46-38.88,60.87-69.96,92.02l-34.87,34.95c-31.08,31.15-56.44,57.81-56.35,59.26v1.33c0,31.18-25.27,56.45-56.45,56.45s-56.45-25.27-56.45-56.45,25.27-56.45,56.45-56.45h3.42c3.63,.5,32.02-24.58,63.1-55.73l32.32-32.39c31.08-31.15,72.43-62.68,91.89-70.08l13.45,13.45,13.45,13.64Z"/>
  <path class="cls-1" d="M363.13,639.86c-15.12-26.18-30.42-49.53-34.01-51.89s-23.84,25.71-38.96,51.89-27.69,51.11-27.93,55.4,34.19,7.79,64.42,7.79,58.11-1.58,61.94-3.51-10.34-33.5-25.46-59.68Z"/>
  <path class="cls-1" d="M215.1,640.2c-15.12-26.18-30.42-49.53-34.01-51.89s-23.84,25.71-38.96,51.89-27.69,51.11-27.93,55.4,34.19,7.79,64.42,7.79,58.11-1.58,61.94-3.51-10.34-33.5-25.46-59.68Z"/>
  <path class="cls-1" d="M240.56,420.26c-3.84-1.93-31.71-3.51-61.94-3.51s-58.11,1.58-61.94,3.51,10.34,33.5,25.46,59.68,30.42,49.53,34.01,51.89,23.84-25.71,38.96-51.89,29.29-57.75,25.46-59.68Z"/>
  <path class="cls-1" d="M388.59,420.26c-3.84-1.93-31.71-3.51-61.94-3.51s-58.11,1.58-61.94,3.51,10.34,33.5,25.46,59.68,30.42,49.53,34.01,51.89,23.84-25.71,38.96-51.89,29.29-57.75,25.46-59.68Z"/>
  <path class="cls-1" d="M536.62,420.26c-3.84-1.93-31.71-3.51-61.94-3.51s-58.11,1.58-61.94,3.51,10.34,33.5,25.46,59.68,30.42,49.53,34.01,51.89,23.84-25.71,38.96-51.89,29.29-57.75,25.46-59.68Z"/>
  <path class="cls-1" d="M684.66,419.92c-3.84-1.93-31.71-3.51-61.94-3.51s-58.11,1.58-61.94,3.51,10.34,33.5,25.46,59.68,30.42,49.53,34.01,51.89,23.84-25.71,38.96-51.89,29.29-57.75,25.46-59.68Z"/>
  <path class="cls-1" d="M659.2,639.86c-15.12-26.18-30.42-49.53-34.01-51.89s-23.84,25.71-38.96,51.89-27.69,51.11-27.93,55.4,34.19,7.79,64.42,7.79,58.11-1.58,61.94-3.51-10.34-33.5-25.46-59.68Z"/>
</svg>