<?xml version="1.0" encoding="UTF-8"?>
<svg xmlns="http://www.w3.org/2000/svg" viewBox="0 0 192 192">
  <defs>
    <style>
      .cls-1 {
        fill: #fff;
      }

      .cls-2 {
        fill: #ff3e3e;
      }
    </style>
  </defs>
  <g id="teeth">
    <polygon class="cls-1" points="6 36 186 35 162 6 29 6 6 36"/>
    <polygon class="cls-1" points="185.84 154 5.84 155 29.84 184 162.84 184 185.84 154"/>
  </g>
  <g id="main">
    <rect y="38.4" width="192" height="115.2"/>
    <path d="M192,0h-35.81l.22,.22c-1.36-.14-2.74-.22-4.14-.22H39.72c-1.32,0-2.62,.07-3.9,.2h0s-35.82,0-35.82,0V36l.2-.2c-.13,1.29-.2,2.6-.2,3.92H192c0-1.39-.07-2.76-.22-4.12l.22,.22V0ZM39.72,33.1H13.9c2.65-11.26,13.24-19.86,25.82-19.86v19.86Zm33.1,0h-19.86V13.24h19.86v19.86Zm33.1,0h-19.86V13.24h19.86v19.86Zm33.1,0h-19.86V13.24h19.86v19.86Zm13.24,0V13.24c12.58,0,22.51,8.61,25.82,19.86h-25.82Z"/>
    <path d="M192,152.28H0c0,1.39,.07,2.76,.22,4.12l-.22-.22v35.82H35.81l-.22-.22c1.36,.14,2.74,.22,4.14,.22h112.55c1.39,0,2.76-.07,4.12-.22l-.22,.22h35.82v-35.81l-.22,.22c.14-1.36,.22-2.74,.22-4.14Zm-152.28,26.48c-12.58,0-22.51-8.61-25.82-19.86h25.82v19.86Zm33.1,0h-19.86v-19.86h19.86v19.86Zm33.1,0h-19.86v-19.86h19.86v19.86Zm33.1,0h-19.86v-19.86h19.86v19.86Zm13.24-19.86h25.82c-2.65,11.26-13.24,19.86-25.82,19.86v-19.86Z"/>
    <g>
      <path class="cls-2" d="M25.48,147.6c0-.2-.02-.4-.02-.6,0-39.29,31.85-71.13,71.13-71.13s71.13,31.85,71.13,71.13c0,.2-.01,.4-.02,.6h11.07c0-.2,.02-.4,.02-.6,0-45.4-36.8-82.2-82.2-82.2S14.4,101.6,14.4,147c0,.2,.01,.4,.02,.6h11.07Z"/>
      <path class="cls-2" d="M38.11,147c0-32.3,26.19-58.49,58.49-58.49s58.49,26.19,58.49,58.49c0,.2-.01,.4-.02,.6h9.49c0-.2,.02-.4,.02-.6-.03-37.53-30.45-67.94-67.97-67.97-37.54,0-67.97,30.43-67.97,67.97,0,.2,.01,.4,.02,.6h9.48c0-.2-.02-.4-.02-.6Z"/>
      <path class="cls-2" d="M115.57,147c0-10.48-8.49-18.97-18.97-18.97s-18.97,8.49-18.97,18.97c0,.2,.02,.4,.03,.6h37.88c0-.2,.03-.4,.03-.6Z"/>
      <path class="cls-2" d="M64.98,147c0-17.46,14.15-31.62,31.62-31.62s31.62,14.15,31.62,31.62c0,.2-.01,.4-.02,.6h11.07c0-.2,.02-.4,.02-.6-.03-23.56-19.12-42.65-42.68-42.68-23.57,0-42.68,19.11-42.68,42.68,0,.2,.01,.4,.02,.6h11.07c0-.2-.02-.4-.02-.6Z"/>
      <path class="cls-2" d="M50.76,147c0-25.32,20.52-45.84,45.84-45.84s45.84,20.52,45.84,45.84c0,.2-.01,.4-.02,.6h9.49c0-.2,.02-.4,.02-.6-.03-30.54-24.79-55.29-55.33-55.33-30.56,0-55.33,24.77-55.33,55.33,0,.2,.01,.4,.02,.6h9.48c0-.2-.02-.4-.02-.6Z"/>
    </g>
  </g>
</svg>